<mxfile host="app.diagrams.net" modified="2021-04-05T13:19:50.565Z" agent="5.0 (Windows NT 10.0; Win64; x64) AppleWebKit/537.36 (KHTML, like Gecko) Chrome/89.0.4389.114 Safari/537.36" etag="N0j8G6lDh98m018m7dl-" version="14.5.3" type="github">
  <diagram id="rCFoJDpoCN2Lao7vI6Yd" name="Page-1">
    <mxGraphModel dx="500" dy="1941" grid="1" gridSize="10" guides="1" tooltips="1" connect="1" arrows="1" fold="1" page="1" pageScale="1" pageWidth="827" pageHeight="1169" math="0" shadow="0">
      <root>
        <mxCell id="0" />
        <mxCell id="1" parent="0" />
        <mxCell id="RRBFPWg47KrapE_NkWG3-7" value="Pool" style="swimlane;html=1;childLayout=stackLayout;resizeParent=1;resizeParentMax=0;horizontal=1;startSize=20;horizontalStack=0;rounded=0;labelBackgroundColor=none;strokeColor=#3333FF;fillColor=#FFFFFF;fontSize=13;" vertex="1" parent="1">
          <mxGeometry x="70" y="60" width="480" height="380" as="geometry" />
        </mxCell>
        <mxCell id="RRBFPWg47KrapE_NkWG3-8" value="Lane 1" style="swimlane;html=1;startSize=20;horizontal=0;fillColor=#FFD966;" vertex="1" parent="RRBFPWg47KrapE_NkWG3-7">
          <mxGeometry y="20" width="480" height="120" as="geometry" />
        </mxCell>
        <mxCell id="RRBFPWg47KrapE_NkWG3-11" value="" style="rounded=1;whiteSpace=wrap;html=1;absoluteArcSize=1;arcSize=14;strokeWidth=2;fillColor=#FFD966;strokeColor=#9673a6;" vertex="1" parent="RRBFPWg47KrapE_NkWG3-8">
          <mxGeometry x="70" y="10" width="100" height="100" as="geometry" />
        </mxCell>
        <mxCell id="RRBFPWg47KrapE_NkWG3-9" value="Lane 2" style="swimlane;html=1;startSize=20;horizontal=0;fillColor=#C3ABD0;" vertex="1" parent="RRBFPWg47KrapE_NkWG3-7">
          <mxGeometry y="140" width="480" height="120" as="geometry" />
        </mxCell>
        <mxCell id="RRBFPWg47KrapE_NkWG3-12" value="" style="rounded=1;whiteSpace=wrap;html=1;absoluteArcSize=1;arcSize=14;strokeWidth=2;fillColor=#e1d5e7;strokeColor=#9673a6;" vertex="1" parent="RRBFPWg47KrapE_NkWG3-9">
          <mxGeometry x="220" y="20" width="100" height="100" as="geometry" />
        </mxCell>
        <mxCell id="RRBFPWg47KrapE_NkWG3-10" value="Lane 3" style="swimlane;html=1;startSize=20;horizontal=0;" vertex="1" parent="RRBFPWg47KrapE_NkWG3-7">
          <mxGeometry y="260" width="480" height="120" as="geometry" />
        </mxCell>
        <mxCell id="RRBFPWg47KrapE_NkWG3-13" style="edgeStyle=orthogonalEdgeStyle;rounded=0;orthogonalLoop=1;jettySize=auto;html=1;entryX=0;entryY=0.6;entryDx=0;entryDy=0;entryPerimeter=0;" edge="1" parent="RRBFPWg47KrapE_NkWG3-7" source="RRBFPWg47KrapE_NkWG3-11" target="RRBFPWg47KrapE_NkWG3-12">
          <mxGeometry relative="1" as="geometry" />
        </mxCell>
        <mxCell id="RRBFPWg47KrapE_NkWG3-22" style="edgeStyle=orthogonalEdgeStyle;rounded=0;orthogonalLoop=1;jettySize=auto;html=1;" edge="1" parent="1" source="RRBFPWg47KrapE_NkWG3-21" target="RRBFPWg47KrapE_NkWG3-11">
          <mxGeometry relative="1" as="geometry" />
        </mxCell>
        <mxCell id="RRBFPWg47KrapE_NkWG3-21" value="Start End" style="ellipse;whiteSpace=wrap;html=1;fontSize=17;fillColor=#dae8fc;strokeColor=#6c8ebf;" vertex="1" parent="1">
          <mxGeometry x="90" y="-70" width="120" height="80" as="geometry" />
        </mxCell>
        <mxCell id="RRBFPWg47KrapE_NkWG3-23" value="boil water" style="rounded=1;whiteSpace=wrap;html=1;absoluteArcSize=1;arcSize=14;strokeWidth=2;fillColor=#e1d5e7;strokeColor=#9673a6;" vertex="1" parent="1">
          <mxGeometry x="170" y="585" width="100" height="100" as="geometry" />
        </mxCell>
        <mxCell id="RRBFPWg47KrapE_NkWG3-24" value="add&amp;nbsp; ingridients" style="rounded=1;whiteSpace=wrap;html=1;absoluteArcSize=1;arcSize=14;strokeWidth=2;fillColor=#e1d5e7;strokeColor=#9673a6;" vertex="1" parent="1">
          <mxGeometry x="590" y="585" width="100" height="100" as="geometry" />
        </mxCell>
        <mxCell id="RRBFPWg47KrapE_NkWG3-25" value="start noodles" style="rounded=1;whiteSpace=wrap;html=1;absoluteArcSize=1;arcSize=14;strokeWidth=2;fillColor=#e1d5e7;strokeColor=#9673a6;" vertex="1" parent="1">
          <mxGeometry x="450" y="585" width="100" height="100" as="geometry" />
        </mxCell>
        <mxCell id="RRBFPWg47KrapE_NkWG3-26" value="cook nuddles" style="rounded=1;whiteSpace=wrap;html=1;absoluteArcSize=1;arcSize=14;strokeWidth=2;fillColor=#e1d5e7;strokeColor=#9673a6;" vertex="1" parent="1">
          <mxGeometry x="314" y="585" width="100" height="100" as="geometry" />
        </mxCell>
        <mxCell id="RRBFPWg47KrapE_NkWG3-27" value="retrieve supplies" style="rounded=1;whiteSpace=wrap;html=1;absoluteArcSize=1;arcSize=14;strokeWidth=2;fillColor=#e1d5e7;strokeColor=#9673a6;" vertex="1" parent="1">
          <mxGeometry x="20" y="585" width="100" height="100" as="geometry" />
        </mxCell>
        <mxCell id="RRBFPWg47KrapE_NkWG3-28" value="Start" style="ellipse;whiteSpace=wrap;html=1;fontSize=17;fillColor=#dae8fc;strokeColor=#6c8ebf;" vertex="1" parent="1">
          <mxGeometry x="30" y="500" width="60" height="40" as="geometry" />
        </mxCell>
        <mxCell id="RRBFPWg47KrapE_NkWG3-29" value="End" style="ellipse;whiteSpace=wrap;html=1;fontSize=17;fillColor=#dae8fc;strokeColor=#6c8ebf;" vertex="1" parent="1">
          <mxGeometry x="610" y="720" width="60" height="50" as="geometry" />
        </mxCell>
      </root>
    </mxGraphModel>
  </diagram>
</mxfile>
